<?xml version="1.0" standalone="no"?>
<!DOCTYPE svg PUBLIC "-//W3C//DTD SVG 20010904//EN"
 "http://www.w3.org/TR/2001/REC-SVG-20010904/DTD/svg10.dtd">
<svg version="1.0" xmlns="http://www.w3.org/2000/svg"
 width="297.000000pt" height="297.000000pt" viewBox="0 0 297.000000 297.000000"
 preserveAspectRatio="xMidYMid meet">
<metadata>
Created by potrace 1.11, written by Peter Selinger 2001-2013
</metadata>
<g transform="translate(0.000000,297.000000) scale(0.100000,-0.100000)"
fill="#000000" stroke="none">
<path d="M1202 2788 c-7 -7 -12 -21 -12 -32 0 -19 -6 -21 -60 -21 -43 0 -63 4
-70 15 -8 13 -12 12 -31 -7 -12 -12 -22 -35 -23 -52 -1 -34 -12 -38 -41 -18
-12 10 -16 22 -13 40 7 35 -6 34 -43 -2 -19 -19 -29 -40 -29 -59 0 -28 -2 -29
-45 -28 -49 0 -92 -24 -112 -65 -17 -35 -25 -99 -12 -99 5 0 8 4 4 10 -3 5 4
19 16 31 39 39 108 7 109 -51 0 -30 -9 -44 -32 -53 -20 -7 -42 17 -34 38 7 18
-5 20 -22 3 -20 -20 -14 -72 13 -108 29 -39 32 -65 8 -78 -19 -11 -66 5 -57
19 3 5 2 14 -2 21 -10 16 -22 -17 -23 -62 -2 -62 57 -114 122 -108 33 2 34 0
22 -39 -5 -19 -2 -23 14 -23 11 0 29 10 41 22 l20 22 0 -48 c0 -39 -5 -53 -29
-77 -31 -31 -48 -34 -98 -20 -34 10 -59 -2 -64 -29 -5 -27 11 -70 26 -70 18 0
18 1 0 -43 -8 -20 -15 -57 -15 -82 l0 -46 -25 20 c-35 27 -82 36 -102 19 -9
-7 -18 -12 -20 -10 -3 2 -7 1 -10 -1 -2 -3 5 -8 16 -12 21 -6 25 -20 21 -80
-2 -38 12 -73 39 -102 22 -23 26 -34 14 -32 -14 2 -28 -1 -43 -11 -13 -9 -12
-13 8 -28 12 -10 25 -30 28 -46 11 -62 36 -91 97 -110 14 -4 16 -10 8 -23 -18
-34 -2 -121 20 -107 5 3 9 2 8 -3 -4 -23 3 -21 29 8 25 28 35 32 78 31 31 0
69 -9 104 -26 30 -14 63 -26 73 -26 21 0 21 -1 3 -35 -21 -39 -12 -57 20 -40
39 20 86 0 52 -22 -7 -4 -20 -16 -28 -27 -14 -18 -13 -18 17 -12 26 6 34 4 43
-13 6 -12 8 -21 5 -21 -3 0 1 -13 9 -29 15 -29 52 -46 79 -35 10 4 16 -6 21
-35 7 -46 18 -56 46 -41 47 25 130 -25 130 -80 0 -11 5 -20 10 -20 6 0 10 7
10 16 0 30 34 74 65 83 44 14 84 10 78 -9 -3 -8 4 -4 16 10 11 14 21 37 21 52
0 25 3 27 29 22 34 -7 69 24 78 69 7 34 24 43 53 27 20 -11 21 -10 9 12 -6 13
-18 27 -25 31 -38 22 10 42 50 21 14 -7 27 -11 27 -8 6 18 4 33 -8 55 -12 26
-11 27 20 33 18 3 50 16 72 27 64 35 175 23 175 -18 0 -7 7 -13 15 -13 29 0
54 84 35 119 -7 15 -2 21 32 35 30 14 45 29 59 60 10 22 19 49 19 58 0 9 10
24 23 33 19 13 20 17 7 25 -8 5 -23 10 -32 10 -10 0 -18 5 -18 10 0 6 4 10 9
10 5 0 19 16 30 36 16 27 21 51 20 89 -3 58 4 75 29 75 15 1 14 3 -3 16 -25
19 -79 11 -117 -17 l-28 -20 0 43 c-1 24 -7 61 -15 83 -13 36 -13 41 5 58 21
19 23 29 14 64 -8 29 -29 35 -75 22 -32 -10 -42 -9 -63 5 -14 9 -30 24 -35 34
-15 28 -23 102 -11 102 5 0 10 -4 10 -10 0 -14 40 -32 57 -25 13 4 14 8 5 17
-26 26 -14 43 31 44 24 0 55 9 70 18 34 23 54 88 37 124 l-11 25 -15 -22 c-18
-25 -51 -25 -67 1 -8 12 -4 24 17 53 38 49 43 86 15 111 -20 17 -22 17 -16 2
8 -22 -18 -49 -39 -41 -23 8 -35 49 -24 77 20 53 87 58 115 8 l15 -27 -4 43
c-9 82 -50 122 -127 122 -26 0 -39 4 -38 13 4 32 -3 51 -30 78 -34 33 -51 37
-44 10 6 -24 -13 -61 -32 -61 -8 0 -15 8 -15 18 0 22 -36 82 -50 82 -5 0 -10
-6 -10 -14 0 -12 -14 -14 -65 -13 -59 2 -65 4 -65 23 0 19 -26 53 -33 43 -1
-2 -9 -16 -16 -30 -14 -28 -23 -34 -113 -73 -93 -40 -110 -97 -64 -220 34 -90
33 -134 -4 -201 -16 -30 -30 -61 -30 -69 0 -22 -54 -14 -59 9 -2 11 -14 35
-27 55 -40 61 -45 94 -25 160 10 33 16 62 12 66 -3 4 0 4 7 0 6 -4 12 -4 12 1
1 4 5 27 9 50 6 32 4 52 -10 83 -16 35 -28 45 -86 71 -71 32 -113 63 -113 86
0 16 -12 17 -28 1z"/>
<path d="M242 2294 c0 -135 10 -164 79 -239 42 -45 46 -66 25 -125 -13 -35
-34 -42 -28 -10 1 9 -4 22 -12 29 -11 9 -17 8 -30 -4 -8 -9 -13 -22 -10 -30 4
-8 2 -15 -3 -15 -11 0 -43 53 -53 88 -5 20 -9 6 -15 -55 -4 -46 -10 -83 -14
-83 -14 0 -52 70 -58 106 l-7 39 -12 -50 c-31 -127 -7 -212 77 -272 27 -19 49
-38 50 -41 6 -39 7 -102 1 -102 -4 0 -13 19 -19 43 -14 52 -59 99 -111 116
-42 14 -61 41 -63 89 l-1 27 -7 -30 c-14 -60 -4 -153 20 -188 32 -44 58 -67
88 -73 14 -3 41 -10 60 -15 19 -4 39 -5 44 -2 6 3 7 1 3 -5 -6 -10 4 -16 24
-14 3 0 6 -8 6 -19 0 -10 -6 -19 -13 -19 -14 0 -17 -23 -15 -119 2 -77 26
-132 81 -188 24 -25 41 -52 41 -65 0 -19 -10 -12 -65 44 -46 48 -65 75 -65 94
0 37 -27 90 -61 118 -31 26 -40 81 -18 103 14 14 5 43 -14 43 -8 0 -20 -7 -27
-15 -10 -13 -10 -19 4 -33 16 -18 21 -53 10 -65 -7 -7 -53 11 -77 31 -9 9 -17
27 -17 41 0 19 -3 22 -12 13 -16 -16 -12 -105 6 -140 21 -40 73 -77 137 -98
31 -10 63 -29 74 -43 11 -14 38 -42 60 -63 21 -20 36 -40 33 -43 -12 -12 -77
24 -90 51 -21 44 -91 76 -164 73 -33 -1 -66 1 -72 5 -8 5 -12 0 -12 -13 0 -12
4 -21 9 -21 5 0 13 -9 16 -21 10 -30 64 -59 110 -59 l40 0 -30 -25 c-16 -13
-43 -24 -58 -25 -41 0 -29 -22 19 -35 21 -5 59 -22 84 -37 62 -37 134 -45 182
-20 22 12 48 17 65 14 29 -5 63 -29 63 -44 0 -14 -38 -9 -44 7 -7 19 -30 19
-46 0 -10 -12 -10 -19 -2 -27 20 -20 14 -23 -32 -20 -45 4 -124 -25 -170 -62
-24 -19 -18 -25 56 -55 99 -39 203 -33 234 14 12 18 25 25 48 25 26 -1 37 -9
69 -55 32 -46 35 -55 20 -56 -32 -2 -58 3 -70 13 -20 16 -16 -10 7 -47 11 -17
43 -44 71 -59 l51 -28 -30 -15 c-38 -19 -51 -44 -19 -39 25 4 77 -19 77 -34 0
-6 -13 -10 -30 -10 -16 0 -30 -4 -30 -9 0 -5 20 -4 46 1 52 11 65 5 41 -19
-13 -13 -37 -17 -110 -18 -78 -1 -99 -5 -130 -24 -21 -12 -35 -27 -31 -32 3
-5 0 -8 -7 -7 -6 2 -14 -4 -17 -12 -2 -8 -2 -12 2 -9 4 4 42 -1 84 -10 90 -19
138 -13 165 21 10 13 29 37 42 53 14 17 25 35 25 42 0 6 16 17 35 23 41 14 69
51 72 95 0 16 2 33 2 37 2 11 31 -2 91 -42 59 -38 126 -63 144 -53 13 8 -8
-20 -47 -61 -15 -16 -27 -33 -27 -38 0 -6 29 -8 70 -5 97 7 171 43 198 97 10
22 21 37 24 35 2 -2 18 -5 36 -7 25 -2 29 -5 19 -16 -6 -8 -21 -18 -33 -23
-13 -4 -28 -18 -35 -31 -11 -21 -10 -21 19 4 17 14 45 32 62 39 16 8 30 17 30
21 0 12 -37 28 -45 20 -5 -4 -5 -2 -2 4 4 7 1 17 -7 23 -10 8 -12 21 -7 44 18
76 -6 140 -80 216 -47 49 -58 57 -53 37 8 -33 11 -106 3 -106 -18 0 -88 42
-94 57 -6 16 -8 15 -16 -5 -5 -13 -7 -28 -3 -33 11 -18 -13 -8 -48 21 -43 35
-55 72 -33 103 29 41 19 83 -30 136 -25 26 -45 53 -45 60 0 6 -5 11 -10 11 -7
0 -8 -14 -4 -37 l6 -38 -35 33 c-31 30 -106 66 -116 56 -2 -2 1 -9 6 -16 6 -7
15 -26 21 -43 5 -16 13 -38 17 -47 6 -14 2 -16 -17 -12 -12 3 -34 7 -47 10
-13 3 -32 9 -43 15 -10 5 -18 7 -18 4 0 -15 86 -128 108 -143 26 -17 112 -23
148 -9 18 6 24 2 37 -25 15 -32 15 -33 -5 -41 -12 -4 -35 -9 -52 -10 -23 -2
-31 -7 -31 -22 0 -15 7 -20 25 -20 14 0 25 5 25 12 0 34 49 37 95 7 59 -39 58
-52 -6 -60 -58 -7 -61 -9 -39 -38 22 -29 19 -49 -5 -41 -29 9 -25 -2 7 -18
l27 -15 -32 -16 c-17 -9 -39 -16 -49 -16 -21 0 -103 42 -103 52 0 12 13 9 58
-12 22 -11 49 -20 59 -19 10 0 2 6 -18 14 -76 28 -96 43 -97 72 -1 43 -49 119
-103 165 -27 23 -49 49 -49 60 0 10 -5 18 -11 18 -5 0 -8 -4 -5 -9 9 -14 15
-81 7 -81 -15 0 -54 44 -43 48 18 6 15 42 -4 49 -8 3 -23 -2 -32 -11 -16 -16
-14 -20 33 -63 27 -25 50 -54 52 -64 3 -19 0 -18 -40 6 -24 14 -51 25 -59 25
-19 0 -58 62 -58 91 0 10 -4 19 -10 19 -5 0 -7 -7 -3 -16 5 -13 2 -15 -18 -9
-50 16 -92 101 -70 142 13 25 -9 49 -34 39 -19 -7 -20 -42 -2 -53 8 -4 19 -23
25 -40 10 -29 9 -33 -7 -33 -11 0 -29 9 -42 19 -23 19 -24 23 -22 152 2 101
-1 139 -12 162 -8 17 -15 36 -15 42 0 14 25 27 55 29 26 1 33 41 8 50 -12 5
-21 2 -28 -9 -23 -39 -47 -65 -56 -60 -5 4 -3 18 5 33 8 15 17 44 21 65 4 20
11 40 16 43 16 10 48 81 50 111 1 15 -1 46 -5 68 -6 38 -5 41 24 59 37 21 70
71 70 104 l0 24 -34 -22 c-19 -11 -57 -23 -85 -27 -51 -6 -51 -6 -51 23 0 16
7 38 15 48 8 10 12 23 8 29 -3 6 -1 7 5 3 6 -3 23 9 39 29 19 23 39 37 63 41
111 20 198 135 188 251 l-3 38 -25 -45 c-19 -33 -38 -51 -74 -68 -27 -13 -50
-21 -52 -19 -2 2 5 21 16 42 11 22 20 46 20 53 0 8 11 25 25 38 30 28 31 35 7
64 -14 18 -25 21 -45 16 -38 -9 -46 -50 -17 -81 24 -26 23 -42 -13 -112 -23
-45 -43 -59 -31 -20 8 23 9 77 3 164 -4 52 -10 60 -16 21 -4 -24 -22 -56 -53
-91 -11 -12 -25 -30 -32 -40 -11 -15 -13 -12 -15 27 -2 70 -19 108 -72 160
l-49 49 0 -119z"/>
<path d="M2673 2368 c-49 -50 -73 -102 -73 -158 0 -22 -4 -40 -10 -40 -5 0
-10 5 -10 11 0 5 -14 24 -30 42 -17 18 -37 52 -44 77 l-13 45 -8 -78 c-7 -76
-4 -123 10 -159 14 -34 -10 -17 -34 23 -38 67 -44 100 -22 115 28 20 33 52 10
75 -36 36 -79 18 -79 -34 0 -20 6 -30 19 -34 12 -3 23 -17 27 -37 3 -17 15
-48 26 -69 l19 -38 -59 30 c-47 24 -62 38 -77 70 -10 23 -21 41 -25 41 -11 0
-4 -83 10 -127 13 -39 52 -99 80 -120 8 -6 40 -19 70 -29 30 -9 63 -24 74 -33
39 -34 79 -94 81 -122 2 -27 -1 -29 -35 -29 -20 0 -59 11 -86 25 -27 14 -50
25 -52 25 -2 0 0 -15 4 -32 9 -42 41 -83 77 -99 20 -8 26 -17 22 -28 -18 -45
-14 -114 11 -163 14 -27 29 -46 33 -43 5 3 7 -3 4 -14 -2 -10 5 -42 18 -70 12
-28 19 -54 16 -57 -7 -8 -47 28 -47 42 0 6 -7 18 -16 25 -14 11 -18 10 -29 -5
-19 -25 -9 -45 20 -41 14 1 31 -5 40 -15 13 -15 13 -20 -4 -52 -21 -42 -29
-178 -11 -178 6 0 9 -3 7 -8 -3 -4 -6 -27 -8 -52 -4 -72 -24 -99 -71 -100 -15
0 -8 28 18 65 22 34 24 40 10 53 -8 8 -22 12 -30 9 -18 -7 -22 -43 -6 -49 15
-5 -17 -92 -41 -114 -34 -31 -52 -27 -45 9 3 18 9 72 12 121 7 86 8 89 40 108
18 10 35 26 38 35 4 10 14 13 29 10 19 -5 20 -4 6 6 -12 9 -14 18 -8 35 5 12
5 22 0 22 -5 0 -11 -13 -14 -29 -4 -17 -22 -41 -47 -61 -22 -17 -40 -30 -40
-27 0 3 10 36 21 73 26 85 22 148 -17 222 l-27 52 -19 -52 c-31 -85 -45 -139
-42 -167 1 -14 2 -33 3 -42 1 -8 17 -32 36 -53 32 -35 35 -44 35 -97 0 -32 -5
-82 -11 -111 -7 -29 -13 -60 -13 -68 -3 -23 -47 -90 -60 -90 -6 0 -28 -9 -49
-20 -46 -25 -47 -25 -47 0 0 11 4 20 9 20 16 0 82 74 79 89 -2 8 -13 15 -25
17 -26 4 -39 -22 -21 -43 10 -13 8 -19 -11 -34 -34 -28 -40 -24 -30 22 6 23 8
47 6 53 -2 6 -7 -2 -11 -19 -5 -19 -25 -43 -54 -66 -50 -38 -102 -126 -102
-171 0 -25 -25 -40 -120 -71 -11 -4 -11 -6 3 -6 10 -1 41 9 68 20 64 28 73 19
15 -15 -50 -29 -70 -32 -109 -13 -32 14 -34 27 -7 34 11 3 17 9 15 14 -3 4
-12 6 -20 2 -8 -3 -15 -3 -15 0 0 14 24 57 32 57 4 0 8 5 8 10 0 6 -3 9 -7 8
-21 -5 -103 15 -103 25 1 7 19 25 41 40 31 22 48 27 70 22 16 -4 27 -10 24
-15 -3 -5 2 -16 11 -25 15 -15 18 -15 33 -1 12 13 13 20 4 34 -6 9 -17 16 -24
14 -7 -2 -28 -1 -46 3 l-32 6 21 35 c15 25 25 33 37 29 84 -35 157 -4 218 90
43 67 44 72 14 55 -10 -5 -37 -14 -61 -19 -42 -9 -42 -9 -35 17 3 14 15 43 25
64 l19 39 -22 -7 c-46 -14 -88 -38 -106 -60 -26 -33 -30 -30 -24 13 l5 37 -46
-49 c-25 -28 -51 -67 -57 -87 -10 -32 -9 -41 7 -65 23 -35 24 -42 5 -73 -21
-33 -32 -44 -59 -59 -18 -10 -22 -9 -23 4 -1 8 -3 20 -4 25 -1 6 -3 13 -4 18
-1 4 -6 -1 -12 -11 -9 -15 -78 -57 -94 -57 -3 0 -4 28 -1 63 l3 62 -49 -50
c-67 -68 -91 -121 -86 -197 3 -51 0 -62 -21 -84 -13 -13 -27 -24 -32 -24 -22
0 -6 -20 25 -30 19 -6 46 -22 60 -35 14 -13 26 -20 26 -15 0 5 -11 17 -25 27
-59 42 -68 50 -54 50 8 0 27 3 41 6 25 7 29 3 42 -27 25 -61 119 -105 224
-106 23 0 42 4 42 10 0 5 -16 28 -36 50 -20 22 -35 40 -33 41 2 0 14 2 27 5
31 6 78 28 142 69 30 19 58 35 62 35 4 0 7 -17 6 -38 0 -49 18 -79 62 -98 19
-9 45 -32 58 -52 34 -55 69 -91 93 -100 13 -5 57 -3 103 5 112 19 113 19 90
44 -37 41 -75 53 -170 55 -98 2 -114 6 -114 31 0 12 6 13 28 7 47 -13 172 -3
172 15 0 5 -24 3 -52 -3 -29 -6 -60 -11 -68 -10 -8 1 -23 2 -32 3 -10 0 -18 5
-18 9 0 14 55 40 78 36 29 -5 28 11 -2 31 -15 10 -33 14 -50 9 -15 -3 -26 -2
-26 4 0 5 15 12 32 16 46 9 102 49 126 89 20 35 19 55 -2 38 -18 -13 -53 -19
-67 -11 -9 6 -3 21 26 59 33 43 44 51 72 51 22 0 33 -5 33 -15 0 -24 60 -49
120 -49 37 0 79 10 129 29 l73 29 -28 23 c-52 41 -106 61 -161 59 -46 -1 -50
0 -42 16 5 9 9 21 9 26 0 18 -33 23 -50 7 -9 -8 -24 -15 -34 -15 -30 0 0 38
39 49 27 7 42 5 72 -10 59 -30 156 -13 214 38 9 7 32 15 52 17 19 2 40 7 46
10 19 12 12 24 -13 23 -22 0 -102 41 -94 48 2 2 23 5 48 8 65 7 77 14 100 61
11 23 20 44 20 47 0 2 -38 2 -85 -2 -93 -6 -123 -20 -160 -76 -17 -26 -81 -60
-92 -49 -7 6 138 146 151 146 23 0 100 38 125 61 31 29 51 79 51 126 0 43 -13
72 -24 54 -4 -6 -5 -15 -2 -20 8 -12 -28 -51 -51 -55 -10 -2 -25 -6 -33 -8
-11 -2 -14 4 -12 27 2 16 8 35 14 42 13 16 3 43 -15 43 -26 0 -38 -25 -23 -46
19 -25 9 -74 -20 -96 -26 -21 -64 -99 -64 -132 0 -17 -18 -42 -57 -80 -32 -31
-62 -56 -66 -56 -18 0 8 47 44 80 47 43 71 97 76 170 4 72 -6 148 -17 129 -5
-7 -12 -11 -15 -7 -10 9 16 45 41 57 12 5 39 13 61 17 55 10 88 29 119 69 22
29 28 49 31 108 3 40 0 83 -6 97 -10 24 -10 23 -9 -10 2 -47 -2 -53 -65 -83
-64 -30 -93 -64 -108 -124 -15 -59 -27 -54 -21 10 4 49 8 56 67 112 48 47 65
70 71 99 9 48 -1 170 -16 193 -9 15 -10 13 -7 -14 2 -18 0 -33 -5 -33 -4 0 -8
-5 -8 -11 0 -15 -39 -69 -50 -69 -5 0 -9 19 -10 43 -3 86 -5 107 -12 107 -5 0
-8 -7 -8 -16 0 -19 -31 -74 -42 -74 -4 0 -8 6 -8 14 0 7 -7 19 -15 26 -11 9
-15 9 -15 1 0 -7 -4 -10 -9 -6 -16 9 -22 -14 -10 -37 6 -13 8 -20 4 -16 -5 4
-15 2 -23 -5 -11 -8 -14 -9 -9 0 4 6 1 29 -7 50 -21 54 -16 74 28 118 67 70
79 104 80 238 1 64 -1 117 -4 117 -3 0 -25 -19 -47 -42z"/>
<path d="M526 1431 c-32 -65 -39 -135 -18 -196 19 -55 24 -85 15 -85 -20 0
-65 49 -79 85 -12 32 -14 34 -10 10 3 -19 -2 -34 -12 -43 -16 -12 -15 -13 2
-8 12 4 30 -4 52 -24 19 -16 38 -30 43 -30 4 0 11 -37 14 -82 3 -46 10 -94 16
-108 l12 -25 -6 25 c-3 14 -8 60 -12 103 -6 77 -6 78 25 110 36 37 52 75 52
120 -1 29 -9 55 -52 168 l-13 36 -29 -56z"/>
<path d="M1475 649 c-4 -5 -10 -7 -14 -4 -5 2 -8 -5 -7 -16 1 -26 25 -40 47
-28 11 5 15 16 12 28 -6 22 -29 35 -38 20z"/>
<path d="M1450 486 c-5 -14 -14 -26 -19 -26 -5 0 -50 -25 -101 -55 -88 -51
-120 -66 -181 -79 -14 -3 -38 -17 -52 -30 -22 -21 -27 -34 -27 -76 0 -58 7
-58 68 0 19 17 57 42 85 56 29 15 75 43 103 64 69 52 121 74 128 54 6 -16 42
-19 51 -4 12 20 45 9 109 -35 36 -24 87 -55 114 -69 27 -14 73 -45 102 -70 29
-25 56 -43 61 -41 14 9 0 99 -20 118 -10 11 -48 29 -83 41 -86 28 -263 126
-274 151 -14 31 -52 32 -64 1z"/>
<path d="M589 485 c-1 -3 -2 -9 -3 -14 -2 -15 -16 -26 -16 -13 0 7 -5 12 -11
12 -8 0 -7 -5 1 -15 7 -9 15 -14 17 -11 2 2 20 0 39 -4 19 -4 34 -4 34 1 0 5
-11 9 -25 9 -22 0 -30 9 -26 33 1 8 -8 10 -10 2z"/>
<path d="M1920 482 c0 -5 7 -16 16 -23 10 -8 36 -54 59 -104 35 -76 48 -93 81
-112 21 -11 56 -31 78 -43 35 -19 38 -19 31 -3 -4 10 -9 34 -12 53 -8 64 -44
148 -72 167 -39 26 -96 51 -130 56 -16 3 -35 8 -40 12 -6 3 -11 2 -11 -3z"/>
<path d="M2365 480 c3 -5 8 -10 11 -10 2 0 4 5 4 10 0 6 -5 10 -11 10 -5 0 -7
-4 -4 -10z"/>
<path d="M951 461 c-95 -33 -127 -71 -151 -176 -7 -27 -15 -62 -20 -77 -5 -16
-7 -28 -5 -28 2 0 36 19 77 43 72 42 74 44 118 136 25 51 54 99 65 107 18 13
18 14 -6 14 -13 -1 -48 -9 -78 -19z"/>
</g>
</svg>
